<svg xmlns="http://www.w3.org/2000/svg" viewBox="0 0 32 32" width="32" height="32">
  <!-- Background -->
  <rect width="32" height="32" rx="6" fill="#1c1c28"/>
  <!-- Top-left: Blue -->
  <rect x="4" y="4" width="11" height="11" rx="2.5" fill="#378ADD"/>
  <rect x="6" y="7.5" width="7" height="1.5" rx="0.75" fill="#ffffff" opacity="0.3"/>
  <rect x="6" y="10" width="4.5" height="1.5" rx="0.75" fill="#ffffff" opacity="0.2"/>
  <!-- Top-right: Teal -->
  <rect x="17" y="4" width="11" height="11" rx="2.5" fill="#1D9E75"/>
  <rect x="19" y="7.5" width="7" height="1.5" rx="0.75" fill="#ffffff" opacity="0.3"/>
  <rect x="19" y="10" width="4.5" height="1.5" rx="0.75" fill="#ffffff" opacity="0.2"/>
  <!-- Bottom-left: Amber -->
  <rect x="4" y="17" width="11" height="11" rx="2.5" fill="#EF9F27"/>
  <rect x="6" y="20.5" width="7" height="1.5" rx="0.75" fill="#ffffff" opacity="0.3"/>
  <rect x="6" y="23" width="4.5" height="1.5" rx="0.75" fill="#ffffff" opacity="0.2"/>
  <!-- Bottom-right: Purple -->
  <rect x="17" y="17" width="11" height="11" rx="2.5" fill="#7F77DD"/>
  <rect x="19" y="20.5" width="7" height="1.5" rx="0.75" fill="#ffffff" opacity="0.3"/>
  <rect x="19" y="23" width="4.5" height="1.5" rx="0.75" fill="#ffffff" opacity="0.2"/>
</svg>
